HIERARCHY
ROOT Hips
{
  OFFSET 51.4582 93.7751 21.8388
  CHANNELS 6 Xposition Yposition Zposition Zrotation Xrotation Yrotation
  JOINT spine
  {
    OFFSET 0 7.4756 0.429885
    CHANNELS 3 Zrotation Xrotation Yrotation
    JOINT spine1
    {
      OFFSET 0 9.92301 0
      CHANNELS 3 Zrotation Xrotation Yrotation
      JOINT spine2
      {
        OFFSET 0 9.50804 0
        CHANNELS 3 Zrotation Xrotation Yrotation
        JOINT Neck
        {
          OFFSET 0 24.4111 1.16384
          CHANNELS 3 Zrotation Xrotation Yrotation
          JOINT Head
          {
            OFFSET 0 7.37523 0
            CHANNELS 3 Zrotation Xrotation Yrotation
            End Site
            {
              OFFSET 0 17.8522 -5.88741
            }
          }
        }
        JOINT RightShoulder
        {
          OFFSET -4.00356 10.2679 -0.557468
          CHANNELS 3 Zrotation Xrotation Yrotation
          JOINT RightArm
          {
            OFFSET 0 13.4673 0
            CHANNELS 3 Zrotation Xrotation Yrotation
            JOINT RightArmRoll
            {
              OFFSET 0 6.79858 0
              CHANNELS 3 Zrotation Xrotation Yrotation
              JOINT RightForeArm
              {
                OFFSET 0 19.8018 0
                CHANNELS 3 Zrotation Xrotation Yrotation
                JOINT RightForeArmRoll
                {
                  OFFSET 0 7.62905 0
                  CHANNELS 3 Zrotation Xrotation Yrotation
                  JOINT RightHand
                  {
                    OFFSET 0 15.3098 0
                    CHANNELS 3 Zrotation Xrotation Yrotation
                    End Site
                    {
                      OFFSET 0 0 0
                    }
                  }
                }
              }
            }
          }
        }
        JOINT LeftShoulder
        {
          OFFSET 4.00356 10.2679 -0.557468
          CHANNELS 3 Zrotation Xrotation Yrotation
          JOINT LeftArm
          {
            OFFSET 0 13.4673 0
            CHANNELS 3 Zrotation Xrotation Yrotation
            JOINT LeftArmRoll
            {
              OFFSET 0 6.79858 0
              CHANNELS 3 Zrotation Xrotation Yrotation
              JOINT LeftForeArm
              {
                OFFSET 0 19.8018 0
                CHANNELS 3 Zrotation Xrotation Yrotation
                JOINT LeftForeArmRoll
                {
                  OFFSET 0 7.62905 0
                  CHANNELS 3 Zrotation Xrotation Yrotation
                  JOINT LeftHand
                  {
                    OFFSET 0 15.3098 0
                    CHANNELS 3 Zrotation Xrotation Yrotation
                    End Site
                    {
                      OFFSET 0 0 0
                    }
                  }
                }
              }
            }
          }
        }
      }
    }
  }
  JOINT RightUpLeg
  {
    OFFSET -6.62609 -1.21505 -1.01927
    CHANNELS 3 Zrotation Xrotation Yrotation
    JOINT RightUpLegRoll
    {
      OFFSET 0 17.9517 0
      CHANNELS 3 Zrotation Xrotation Yrotation
      JOINT RightLeg
      {
        OFFSET 0 -22.2304 0
        CHANNELS 3 Zrotation Xrotation Yrotation
        JOINT RightLegRoll
        {
          OFFSET 0 22.3032 0
          CHANNELS 3 Zrotation Xrotation Yrotation
          JOINT RightFoot
          {
            OFFSET 0 18.5636 0
            CHANNELS 3 Zrotation Xrotation Yrotation
            JOINT RightToeBase
            {
              OFFSET 0 15.5183 0
              CHANNELS 3 Zrotation Xrotation Yrotation
              End Site
              {
                OFFSET 0.00657761 7.51539 -0.866262
              }
            }
          }
        }
      }
    }
  }
  JOINT LeftUpLeg
  {
    OFFSET 6.62609 -1.21505 -1.01927
    CHANNELS 3 Zrotation Xrotation Yrotation
    JOINT LeftUpLegRoll
    {
      OFFSET 0 17.9518 0
      CHANNELS 3 Zrotation Xrotation Yrotation
      JOINT LeftLeg
      {
        OFFSET 0 22.2303 0
        CHANNELS 3 Zrotation Xrotation Yrotation
        JOINT LeftLegRoll
        {
          OFFSET 0 22.5093 0
          CHANNELS 3 Zrotation Xrotation Yrotation
          JOINT LeftFoot
          {
            OFFSET 0 18.3575 0
            CHANNELS 3 Zrotation Xrotation Yrotation
            JOINT LeftToeBase
            {
              OFFSET 0 15.5183 0
              CHANNELS 3 Zrotation Xrotation Yrotation
              End Site
              {
                OFFSET -0.029478 7.51539 -0.866263
              }
            }
          }
        }
      }
    }
  }
}
MOTION
Frames: 9
Frame Time: 0.00208333
50.0952 88.1214 22.0661 1.02028 -4.00098 7.25872 0.0338537 -0.176255 -0.203064 0.0691385 3.65025 -0.410319 0.074172 5.2953 -0.411906 -17.2647 -4.2432 -6.527 17.2499 5.8223 -7.87613 42.9231 -9.05528 -5.35564 136.505 16.6385 -36.2213 6.98099e-007 7.9971e-007 -8.22488e-006 12.0586 65.8907 -9.40278 -4.80726e-006 1.3537e-007 -3.01086 8.03025 -4.95136 0.697652 -70.64 -1.2553 2.00864 -132.874 41.2285 35.054 1.35306e-006 -1.60787e-006 2.30773e-007 -13.6911 61.2537 11.4182 8.60633e-006 -2.0203e-006 3.00225 -8.03011 -4.95139 -0.697649 179.804 13.0777 2.00026 180 7.01431e-015 178.503 177.766 46.1204 179.614 -3.40799e-006 2.7571e-007 1.50275 -41.7502 79.2475 41.1563 9.0924 37.6805 -4.0032 -175.923 14.8795 -3.2302 4.54188e-006 -4.6773e-006 -1.23902 -4.24168 -43.8053 -0.710666 -3.26638e-006 7.70837e-007 -1.38137 36.8298 79.2874 -39.0704 -8.65007 32.8749 3.48893 
50.095 88.4066 22.1276 0.999637 -4.01996 7.17205 0.043337 -0.182737 -0.192926 0.0880322 3.63728 -0.391212 0.092862 5.28233 -0.393095 -17.3712 -4.20702 -6.47966 17.2959 5.80185 -7.84262 42.8422 -9.01045 -5.3158 136.412 16.5471 -36.2455 6.98099e-007 7.9971e-007 -8.22488e-006 11.9174 66.0863 -9.34274 -4.80726e-006 1.3537e-007 -3.01086 8.03025 -4.95136 0.697652 -70.6066 -1.28611 2.02016 -132.836 41.1487 34.9228 1.35306e-006 -1.60787e-006 2.30773e-007 -13.6758 61.5363 11.4748 8.60633e-006 -2.0203e-006 3.00225 -8.03011 -4.95139 -0.697649 179.69 12.6935 2.05319 180 7.01437e-015 178.521 177.635 45.3064 179.657 -3.40799e-006 2.75712e-007 1.43379 -39.4919 78.696 38.8684 9.12411 38.0368 -4.02263 -175.844 14.4109 -3.30893 4.54188e-006 -4.6773e-006 -1.2412 -4.38099 -42.9216 -0.724695 -3.26638e-006 7.70838e-007 -1.33314 35.0707 78.7764 -37.2091 -8.67687 33.1813 3.53059 
50.0443 88.5618 22.1731 0.976042 -4.03547 7.07994 0.0530033 -0.192069 -0.181938 0.107283 3.6186 -0.37043 0.111889 5.26365 -0.372614 -17.4632 -4.15689 -6.4294 17.3287 5.79022 -7.80796 42.7774 -8.96181 -5.27296 136.294 16.4403 -36.2708 6.98099e-007 7.9971e-007 -8.22488e-006 11.7683 66.2861 -9.27562 -4.80726e-006 1.3537e-007 -3.01086 8.03025 -4.95136 0.697652 -70.5745 -1.31545 2.03113 -132.767 41.045 34.7736 1.35306e-006 -1.60787e-006 2.30773e-007 -13.6716 61.8452 11.5458 8.60633e-006 -2.0203e-006 3.00225 -8.03011 -4.95139 -0.697649 179.572 12.2899 2.10646 180 7.01443e-015 178.54 177.503 44.4472 179.698 -3.40799e-006 2.75713e-007 1.36168 -37.3316 78.0955 36.6809 9.15869 38.4215 -4.04394 -175.765 13.9232 -3.38809 4.54188e-006 -4.6773e-006 -1.24426 -4.51966 -41.9965 -0.734501 -3.26638e-006 7.70838e-007 -1.28409 33.3854 78.224 -35.4164 -8.70575 33.5127 3.57172 
50.1031 88.8265 22.2359 0.950009 -4.04735 6.98321 0.0627463 -0.204121 -0.170293 0.126682 3.59448 -0.348343 0.131048 5.23954 -0.350829 -17.5416 -4.09362 -6.37631 17.3496 5.78621 -7.77205 42.7278 -8.90966 -5.22741 136.152 16.3195 -36.2975 6.98099e-007 7.9971e-007 -8.22488e-006 11.6108 66.4893 -9.2011 -4.80726e-006 1.3537e-007 -3.01086 8.03025 -4.95136 0.697652 -70.5434 -1.34369 2.04171 -132.669 40.9185 34.6077 1.35306e-006 -1.60787e-006 2.30773e-007 -13.6772 62.1762 11.6294 8.60633e-006 -2.0203e-006 3.00225 -8.03011 -4.95139 -0.697649 179.451 11.8715 2.15904 180 7.01449e-015 178.559 177.372 43.5513 179.736 -3.40799e-006 2.75714e-007 1.2874 -35.3082 77.4556 34.6332 9.19485 38.8197 -4.06637 -175.688 13.42 -3.4658 4.54188e-006 -4.6773e-006 -1.24804 -4.65603 -41.0357 -0.740369 -3.26638e-006 7.70839e-007 -1.23448 31.7968 77.6362 -33.7169 -8.7359 33.8572 3.61197 
50.2031 89.0562 22.2988 0.922049 -4.0554 6.88265 0.0724598 -0.218763 -0.158182 0.146019 3.56519 -0.325322 0.150134 5.21025 -0.328106 -17.6074 -4.01797 -6.32051 17.3602 5.78863 -7.73481 42.6928 -8.85432 -5.17947 135.989 16.186 -36.3259 6.98099e-007 7.9971e-007 -8.22488e-006 11.4445 66.6953 -9.11885 -4.80726e-006 1.3537e-007 -3.01086 8.03025 -4.95136 0.697652 -70.5134 -1.37119 2.05207 -132.544 40.7704 34.4263 1.35306e-006 -1.60787e-006 2.30773e-007 -13.6912 62.525 11.7237 8.60633e-006 -2.0203e-006 3.00224 -8.03011 -4.95139 -0.697649 179.33 11.4427 2.20987 180 7.01455e-015 178.579 177.245 42.6274 179.772 -3.40799e-006 2.75715e-007 1.21193 -33.4442 76.7874 32.7486 9.23126 39.2163 -4.08911 -175.614 12.905 -3.5402 4.54188e-006 -4.6773e-006 -1.25233 -4.78843 -40.0447 -0.742578 -3.26638e-006 7.70839e-007 -1.18455 30.3186 77.0197 -32.126 -8.76646 34.2033 3.65097 
50.2786 89.3367 22.264 0.892678 -4.05945 6.77907 0.0820371 -0.235863 -0.145796 0.165085 3.53098 -0.301734 0.168941 5.17604 -0.304813 -17.6613 -3.93073 -6.26208 17.3617 5.79629 -7.69613 42.6714 -8.79609 -5.12943 135.806 16.0411 -36.3561 6.98099e-007 7.9971e-007 -8.22488e-006 11.2691 66.9033 -9.02852 -4.80726e-006 1.3537e-007 -3.01086 8.03025 -4.95136 0.697652 -70.484 -1.39835 2.06236 -132.393 40.6019 34.2305 1.35306e-006 -1.60787e-006 2.30773e-007 -13.7123 62.8874 11.827 8.60633e-006 -2.0203e-006 3.00224 -8.03011 -4.95139 -0.697649 179.209 11.0079 2.25795 180 7.01461e-015 178.599 177.123 41.6838 179.803 -3.40799e-006 2.75715e-007 1.13627 -31.7498 76.1027 31.0381 9.26652 39.5964 -4.11127 -175.543 12.3817 -3.60944 4.54188e-006 -4.6773e-006 -1.25694 -4.91519 -39.0291 -0.741388 -3.26638e-006 7.7084e-007 -1.13456 28.9574 76.3816 -30.6522 -8.7965 34.5394 3.68827 
50.3201 89.5502 22.3374 0.862416 -4.05933 6.67326 0.0913715 -0.255291 -0.133329 0.183669 3.49211 -0.27795 0.187262 5.13717 -0.281315 -17.7042 -3.83268 -6.20115 17.3555 5.80797 -7.65593 42.6629 -8.73528 -5.0776 135.607 15.886 -36.3885 6.98099e-007 7.9971e-007 -8.22488e-006 11.084 67.1126 -8.92977 -4.80726e-006 1.3537e-007 -3.01086 8.03025 -4.95136 0.697652 -70.4553 -1.42553 2.07274 -132.219 40.4143 34.0215 1.35306e-006 -1.60787e-006 2.30773e-007 -13.7387 63.2593 11.937 8.60633e-006 -2.0203e-006 3.00224 -8.03011 -4.95139 -0.697649 179.089 10.5714 2.30222 180 7.01467e-015 178.619 177.008 40.7292 179.832 -3.40799e-006 2.75715e-007 1.06139 -30.2268 75.4136 29.5041 9.29917 39.9448 -4.1319 -175.478 11.8539 -3.6717 4.54188e-006 -4.6773e-006 -1.26168 -5.03463 -37.9946 -0.737046 -3.26638e-006 7.70839e-007 -1.08477 27.7144 75.7292 -29.2983 -8.82508 34.8538 3.72341 
50.3219 89.7872 22.4827 0.831782 -4.05485 6.56604 0.100356 -0.276916 -0.120972 0.201558 3.44885 -0.254339 0.204889 5.09391 -0.257978 -17.737 -3.7246 -6.13781 17.343 5.82248 -7.61411 42.6666 -8.67219 -5.02428 135.393 15.7223 -36.4231 6.98099e-007 7.9971e-007 -8.22488e-006 10.8889 67.3224 -8.82222 -4.80726e-006 1.3537e-007 -3.01086 8.03025 -4.95136 0.697652 -70.4269 -1.4531 2.08338 -132.022 40.2087 33.8005 1.35306e-006 -1.60787e-006 2.30773e-007 -13.7688 63.6364 12.0514 8.60633e-006 -2.0203e-006 3.00224 -8.03011 -4.95139 -0.697649 178.972 10.1378 2.34169 180 7.01473e-015 178.638 176.903 39.7719 179.856 -3.40799e-006 2.75714e-007 0.988271 -28.8712 74.7329 28.1434 9.32771 40.2468 -4.14998 -175.419 11.3251 -3.72513 4.54188e-006 -4.6773e-006 -1.26636 -5.14505 -36.9466 -0.729776 -3.26638e-006 7.70839e-007 -1.03542 26.5869 75.07 -28.0632 -8.85119 35.135 3.75586 
50.3125 90.0708 22.5046 0.8013 -4.04585 6.45821 0.108883 -0.300608 -0.108917 0.218538 3.40146 -0.231271 0.221612 5.04652 -0.235169 -17.7606 -3.60728 -6.07216 17.3256 5.83863 -7.57057 42.6815 -8.60713 -4.96978 135.166 15.551 -36.4601 6.98099e-007 7.9971e-007 -8.22488e-006 10.6833 67.5321 -8.70553 -4.80726e-006 1.3537e-007 -3.01086 8.03025 -4.95136 0.697652 -70.3987 -1.48144 2.09444 -131.806 39.9863 33.5686 1.35306e-006 -1.60787e-006 2.30773e-007 -13.8006 64.0145 12.168 8.60633e-006 -2.0203e-006 3.00224 -8.03011 -4.95139 -0.697649 178.858 9.71136 2.37531 180 7.01478e-015 178.657 176.81 38.8206 179.877 -3.40799e-006 2.75713e-007 0.917904 -27.6761 74.0731 26.9496 9.35059 40.4871 -4.16448 -175.367 10.7989 -3.76792 4.54188e-006 -4.6773e-006 -1.27079 -5.24473 -35.8909 -0.719781 -3.26638e-006 7.70839e-007 -0.98677 25.5698 74.4117 -26.9436 -8.87378 35.3711 3.78508 
